<svg preserveAspectRatio="none" width="100%" height="100%" overflow="visible" style="display: block;" viewBox="0 0 24 24" fill="none" xmlns="http://www.w3.org/2000/svg">
<g id="Icon - Bold">
<path id="Exclude" d="M12.4668 2C13.1207 2.00009 13.7485 2.26035 14.2109 2.72266C14.6732 3.18514 14.9335 3.81287 14.9336 4.4668V4.53809L14.9395 4.62207C14.9519 4.70424 14.9821 4.78363 15.0283 4.85352C15.0901 4.94679 15.1785 5.02025 15.2812 5.06445L15.2891 5.06836C15.394 5.11469 15.5111 5.12781 15.624 5.10742C15.7348 5.08734 15.8366 5.03467 15.918 4.95703L15.9668 4.90918C16.1958 4.67991 16.4682 4.49815 16.7676 4.37402C17.0668 4.24998 17.388 4.18564 17.7119 4.18555C18.0359 4.18555 18.3579 4.25 18.6572 4.37402C18.9563 4.49803 19.2282 4.68023 19.457 4.90918L19.6201 5.08887C19.7735 5.27574 19.8992 5.48485 19.9922 5.70898C20.1163 6.00833 20.1806 6.33025 20.1807 6.6543C20.1806 6.97829 20.1162 7.29933 19.9922 7.59863C19.8681 7.89805 19.6864 8.17035 19.457 8.39941L19.4561 8.39844L19.4072 8.44922C19.3304 8.53025 19.2788 8.63221 19.2588 8.74219C19.2383 8.85506 19.2526 8.97218 19.2988 9.07715C19.3219 9.12944 19.3382 9.18455 19.3496 9.24023C19.3921 9.30495 19.4476 9.36112 19.5127 9.4043C19.6061 9.46615 19.7161 9.49949 19.8281 9.5H19.9668C20.6207 9.50009 21.2485 9.76035 21.7109 10.2227C22.1732 10.6851 22.4335 11.3129 22.4336 11.9668C22.4335 12.6209 22.1735 13.2484 21.7109 13.7109C21.2484 14.1735 20.6209 14.4335 19.9668 14.4336H19.8945L19.8115 14.4395C19.729 14.4519 19.6492 14.4819 19.5791 14.5283C19.4858 14.5902 19.4123 14.6784 19.3682 14.7812L19.3652 14.7891C19.3189 14.894 19.3049 15.0112 19.3252 15.124C19.3457 15.2369 19.4003 15.3417 19.4805 15.4238L19.5225 15.4668C19.7516 15.6957 19.9345 15.9684 20.0586 16.2676C20.1826 16.5668 20.247 16.888 20.2471 17.2119C20.2471 17.536 20.1827 17.8578 20.0586 18.1572C19.9346 18.4562 19.7524 18.7272 19.5234 18.9561C19.2944 19.1854 19.023 19.3681 18.7236 19.4922C18.4243 19.6162 18.1033 19.6806 17.7793 19.6807C17.4552 19.6806 17.1333 19.6163 16.834 19.4922C16.6099 19.3992 16.4007 19.2735 16.2139 19.1201L16.0342 18.957L15.9902 18.9131C15.9082 18.833 15.8032 18.7792 15.6904 18.7588C15.5777 18.7385 15.4613 18.7526 15.3564 18.7988L15.3486 18.8018C15.2457 18.8459 15.1576 18.9194 15.0957 19.0127C15.0338 19.1061 15.0005 19.2161 15 19.3281V19.4668C14.9999 20.1209 14.7399 20.7484 14.2773 21.2109C13.8148 21.6734 13.1873 21.9336 12.5332 21.9336C11.8792 21.9335 11.2516 21.6733 10.7891 21.2109C10.3268 20.7485 10.0665 20.1207 10.0664 19.4668V19.4102C10.0636 19.295 10.027 19.1826 9.95996 19.0889C9.89286 18.9952 9.79856 18.9236 9.69043 18.8838C9.6748 18.878 9.6588 18.872 9.64355 18.8652C9.53855 18.819 9.4215 18.8047 9.30859 18.8252C9.19568 18.8457 9.09083 18.9002 9.00879 18.9805L8.96582 19.0234C8.73673 19.2528 8.46449 19.4345 8.16504 19.5586C7.86567 19.6827 7.54477 19.7471 7.2207 19.7471C6.89671 19.747 6.57567 19.6826 6.27637 19.5586C5.97708 19.4345 5.70457 19.2527 5.47559 19.0234C5.24691 18.7946 5.06431 18.5225 4.94043 18.2236C4.81645 17.9244 4.75297 17.6032 4.75293 17.2793C4.75297 16.9552 4.81634 16.6333 4.94043 16.334C5.06448 16.0349 5.24656 15.7631 5.47559 15.5342L5.51953 15.4902C5.59984 15.4081 5.65334 15.3034 5.67383 15.1904C5.69414 15.0777 5.68096 14.9613 5.63477 14.8564L5.63086 14.8486C5.58667 14.7457 5.5133 14.6575 5.41992 14.5957C5.34991 14.5494 5.27081 14.5183 5.18848 14.5059L5.10449 14.5H4.9668C4.31281 14.4999 3.68515 14.2397 3.22266 13.7773C2.76029 13.3148 2.50002 12.6872 2.5 12.0332C2.50009 11.3791 2.76014 10.7516 3.22266 10.2891C3.68516 9.82663 4.31277 9.56649 4.9668 9.56641H5.02246C5.13768 9.56371 5.24997 9.52694 5.34375 9.45996C5.43755 9.39287 5.50899 9.29866 5.54883 9.19043L5.56836 9.14355C5.61466 9.03851 5.6279 8.92156 5.60742 8.80859C5.58738 8.69864 5.53582 8.59662 5.45898 8.51562L5.40918 8.46582C5.18005 8.23683 4.99808 7.96429 4.87402 7.66504C4.75005 7.36577 4.68556 7.04464 4.68555 6.7207C4.68559 6.39675 4.75 6.07564 4.87402 5.77637C4.96707 5.55196 5.0925 5.34235 5.24609 5.15527L5.40918 4.97559C5.63807 4.74656 5.90989 4.56448 6.20898 4.44043C6.50833 4.31634 6.83025 4.25297 7.1543 4.25293C7.47819 4.25297 7.7994 4.31645 8.09863 4.44043C8.39768 4.56439 8.66954 4.74668 8.89844 4.97559L8.94824 5.02441C9.02944 5.1018 9.13173 5.15373 9.24219 5.17383C9.35516 5.1943 9.4721 5.18109 9.57715 5.13477L9.6543 5.10547C9.68184 5.09658 9.70998 5.08885 9.73828 5.08301C9.80366 5.04035 9.86081 4.98559 9.9043 4.91992C9.96547 4.82744 9.99889 4.71923 10 4.6084V4.4668C10.0001 3.81271 10.2601 3.18517 10.7227 2.72266C11.1852 2.26014 11.8127 2.00009 12.4668 2ZM12.4668 8.63379C10.6258 8.63379 9.13379 10.1258 9.13379 11.9668C9.13379 13.8077 10.6258 15.2998 12.4668 15.2998C14.3077 15.2998 15.7998 13.8077 15.7998 11.9668C15.7998 10.1258 14.3077 8.63379 12.4668 8.63379Z" fill="currentColor"/>
</g>
</svg>
