<svg preserveAspectRatio="none" width="100%" height="100%" overflow="visible" style="display: block;" viewBox="0 0 24 24" fill="none" xmlns="http://www.w3.org/2000/svg">
<g id="Icon - Outline">
<path id="Icon" d="M9.76402 7.77154C9.49076 7.56733 9.35414 7.46522 9.20327 7.42597C9.07015 7.39134 8.92985 7.39134 8.79673 7.42597C8.64586 7.46522 8.50924 7.56733 8.23599 7.77154L2.96086 11.7138C2.60824 11.9774 2.43193 12.1091 2.30491 12.2742C2.1924 12.4203 2.10858 12.585 2.05758 12.7601C2 12.9577 2 13.1723 2 13.6016V19.0085C2 19.8456 2 20.2642 2.16955 20.5839C2.31868 20.8651 2.55665 21.0938 2.84935 21.2371C3.1821 21.4 3.6177 21.4 4.48889 21.4H6.04444C6.26224 21.4 6.37114 21.4 6.45433 21.3593C6.5275 21.3234 6.587 21.2663 6.62428 21.196C6.66667 21.116 6.66667 21.0114 6.66667 20.8021V15.8697C6.66667 15.4511 6.66667 15.2419 6.75144 15.082C6.82601 14.9414 6.94499 14.8271 7.09134 14.7554C7.25772 14.674 7.47551 14.674 7.91111 14.674H10.0889C10.5245 14.674 10.7423 14.674 10.9087 14.7554C11.055 14.8271 11.174 14.9414 11.2486 15.082C11.3333 15.2419 11.3333 15.4511 11.3333 15.8697V20.8021C11.3333 21.0114 11.3333 21.116 11.3757 21.196C11.413 21.2663 11.4725 21.3234 11.5457 21.3593C11.6289 21.4 11.7378 21.4 11.9556 21.4H13.5111C14.3823 21.4 14.8179 21.4 15.1507 21.2371C15.4433 21.0938 15.6813 20.8651 15.8305 20.5839C16 20.2642 16 19.8456 16 19.0085V13.6016C16 13.1723 16 12.9577 15.9424 12.7601C15.8914 12.585 15.8076 12.4203 15.6951 12.2742C15.5681 12.1091 15.3918 11.9774 15.0391 11.7138L9.76402 7.77154Z" stroke="currentColor" stroke-width="1.5" stroke-linecap="round" stroke-linejoin="round"/>
<path id="Vector 471" d="M11 8.9V5.4L16.7 2.4L22.1962 5.4V21.4H12" stroke="currentColor" stroke-width="1.5" stroke-linejoin="round"/>
<rect id="Rectangle 1562" x="14" y="6" width="2" height="2" fill="currentColor"/>
<rect id="Rectangle 1563" x="18" y="6" width="2" height="2" fill="currentColor"/>
<rect id="Rectangle 1564" x="18" y="13" width="2" height="2" fill="currentColor"/>
<rect id="Rectangle 1565" x="18" y="17" width="2" height="2" fill="currentColor"/>
</g>
</svg>
