<svg preserveAspectRatio="none" width="100%" height="100%" overflow="visible" style="display: block;" viewBox="0 0 24 24" fill="none" xmlns="http://www.w3.org/2000/svg">
<g id="Icon - Bold">
<path id="Subtract" fill-rule="evenodd" clip-rule="evenodd" d="M16.417 1.65106C16.6332 1.56966 16.8763 1.58579 17.082 1.69794L22.5781 4.69794C22.8349 4.83811 22.995 5.10753 22.9951 5.40009V21.4001C22.9951 21.8419 22.6371 22.1998 22.1953 22.1999H16.7988V13.321C16.7964 13.0459 16.7825 12.7863 16.71 12.5368C16.6308 12.2651 16.5006 12.0099 16.3281 11.7858C16.1183 11.5134 15.8321 11.3087 15.5166 11.0729L10.2422 7.13055C10.2282 7.12012 10.2137 7.10926 10.1992 7.09833V5.40009C10.1993 5.10331 10.3634 4.83042 10.626 4.69208L16.3262 1.69208L16.417 1.65106ZM18 16.9997V18.9997H20V16.9997H18ZM18 12.9997V14.9997H20V12.9997H18ZM14 5.9997V7.9997H16V5.9997H14ZM18 5.9997V7.9997H20V5.9997H18Z" fill="currentColor"/>
<path id="Icon" d="M9.24052 7.88481C8.95751 7.67331 8.816 7.56755 8.65975 7.5269C8.52188 7.49103 8.37656 7.49103 8.23869 7.5269C8.08244 7.56755 7.94093 7.67331 7.65792 7.88481L2.19439 11.9679C1.82918 12.2409 1.64657 12.3773 1.51502 12.5482C1.39849 12.6996 1.31168 12.8702 1.25885 13.0515C1.19922 13.2562 1.19922 13.4785 1.19922 13.9231V19.5231C1.19922 20.3901 1.19922 20.8236 1.37482 21.1547C1.52928 21.446 1.77575 21.6829 2.0789 21.8313C2.42354 22 2.87469 22 3.777 22H5.38811C5.61368 22 5.72647 22 5.81263 21.9578C5.88842 21.9207 5.95004 21.8615 5.98865 21.7887C6.03255 21.7059 6.03255 21.5975 6.03255 21.3808L6.03255 16.2722C6.03255 15.8387 6.03255 15.6219 6.12035 15.4564C6.19758 15.3107 6.32082 15.1923 6.47239 15.1181C6.64471 15.0337 6.87029 15.0337 7.32144 15.0337H9.577C10.0282 15.0337 10.2537 15.0337 10.426 15.1181C10.5776 15.1923 10.7009 15.3107 10.7781 15.4564C10.8659 15.6219 10.8659 15.8387 10.8659 16.2722L10.8659 21.3808C10.8659 21.5975 10.8659 21.7059 10.9098 21.7887C10.9484 21.8615 11.01 21.9207 11.0858 21.9578C11.172 22 11.2848 22 11.5103 22H13.1214C14.0237 22 14.4749 22 14.8195 21.8313C15.1227 21.6829 15.3692 21.446 15.5236 21.1547C15.6992 20.8236 15.6992 20.3901 15.6992 19.5231V13.9231C15.6992 13.4785 15.6992 13.2562 15.6396 13.0515C15.5868 12.8702 15.5 12.6996 15.3834 12.5482C15.2519 12.3773 15.0693 12.2409 14.704 11.9679L9.24052 7.88481Z" fill="currentColor"/>
</g>
</svg>
