<svg preserveAspectRatio="none" width="100%" height="100%" overflow="visible" style="display: block;" viewBox="0 0 24 24" fill="none" xmlns="http://www.w3.org/2000/svg">
<g id="Icon - Bold">
<path id="Subtract" d="M11.7637 1.55986C11.9355 1.46757 12.1486 1.48291 12.3066 1.60576L21.3066 8.60576C21.4283 8.70049 21.5 8.84612 21.5 9.00029V20.0003C21.4998 20.6631 21.2363 21.2992 20.7676 21.7679C20.2988 22.2365 19.6629 22.5003 19 22.5003H16V13.0003C16 12.448 15.5523 12.0003 15 12.0003H9C8.44772 12.0003 8 12.448 8 13.0003V22.5003H5C4.33711 22.5003 3.70123 22.2365 3.23242 21.7679C2.76373 21.2992 2.50017 20.6631 2.5 20.0003V9.00029C2.5 8.84612 2.57175 8.70049 2.69336 8.60576L11.6934 1.60576L11.7637 1.55986Z" fill="currentColor"/>
<path id="Vector" d="M9.59961 22.4004H14.4004V13.5996H9.59961V22.4004Z" fill="currentColor"/>
</g>
</svg>
