<svg preserveAspectRatio="none" width="100%" height="100%" overflow="visible" style="display: block;" viewBox="0 0 20.3077 21.939" fill="none" xmlns="http://www.w3.org/2000/svg">
<g id="Group">
<path id="Vector" d="M9.64116 5.15198C11.0203 5.15198 12.1424 4.0301 12.1424 2.65099C12.1424 1.27202 11.0203 0.15 9.64116 0.15C8.26199 0.15 7.14059 1.27207 7.14059 2.6508C7.14041 4.0301 8.26195 5.15198 9.64116 5.15198ZM9.64116 1.23738C10.421 1.23738 11.055 1.87138 11.055 2.65061C11.055 3.43003 10.421 4.0646 9.64116 4.0646C8.86209 4.0646 8.2273 3.43003 8.2273 2.65061C8.2273 1.87138 8.86209 1.23738 9.64116 1.23738Z" fill="currentColor" stroke="currentColor" stroke-width="0.3"/>
<path id="Vector_2" d="M17.1702 7.42222C17.9155 6.98842 18.4183 6.18327 18.4183 5.26088C18.4183 3.88191 17.2965 2.75989 15.9177 2.75989C14.5385 2.75989 13.4164 3.88196 13.4164 5.26088C13.4164 5.43928 13.4362 5.61339 13.4718 5.78115C12.2132 5.60219 10.5357 5.58709 10.5116 5.58709C9.32739 5.58709 8.0884 5.64414 7.04718 6.06097C6.19986 6.40007 5.49033 7.16643 5.1186 7.6293C4.78471 7.43767 4.39919 7.32675 3.98737 7.32675C2.72785 7.32675 1.70362 8.35094 1.70362 9.60983C1.70362 10.442 2.15235 11.169 2.81882 11.5682C1.90941 11.7315 0.759902 12.1354 0.426589 13.1354C0.107985 14.0915 0.138935 15.1424 0.165967 16.0689C0.17361 16.3228 0.18144 16.572 0.18144 16.8131C0.18144 17.7953 0.912591 18.3259 1.60146 18.3259C1.70847 18.3259 1.81622 18.3119 1.92118 18.2878V20.2671C1.92118 21.2609 2.62493 21.7847 3.32086 21.7888H3.32851C3.63835 21.7888 3.95676 21.6783 4.21405 21.466C4.46833 21.6785 4.78489 21.789 5.09196 21.789H5.0996C5.78918 21.7849 6.48716 21.2611 6.48716 20.2673V14.5085C6.63798 14.4261 6.82739 14.3146 7.02259 14.183C7.08243 16.5013 7.14022 19.0078 7.14022 20.0496C7.14022 21.1518 7.95361 21.7285 8.75692 21.7285C9.245 21.7285 9.73753 21.516 10.0545 21.1024C10.3498 21.5255 10.8203 21.7427 11.2865 21.7427C12.036 21.7427 12.7946 21.1812 12.7946 20.1086C12.7946 18.7695 12.9497 14.8938 13.0679 12.1445C13.1868 12.0326 13.4096 11.8665 13.6596 11.6924C13.717 13.8957 13.851 19.1406 13.851 20.3222C13.851 20.8716 14.0837 21.2107 14.2787 21.3986C14.5324 21.6429 14.8723 21.7769 15.236 21.7769C15.5507 21.7769 15.874 21.6699 16.1346 21.463C16.3952 21.6697 16.7186 21.7769 17.033 21.7769C17.3971 21.7769 17.7367 21.6427 17.9903 21.3986C18.1855 21.2109 18.4178 20.8718 18.4178 20.3222C18.4178 19.2235 18.5346 16.7974 18.5967 15.5831C18.6459 15.5881 18.6953 15.5915 18.7444 15.5915C19.4392 15.5915 20.1577 15.0628 20.1577 14.178L20.1575 10.2636C20.1582 8.73687 19.0622 7.72254 17.1702 7.42222ZM15.9178 3.84745C16.6968 3.84745 17.3312 4.48146 17.3312 5.26088C17.3312 6.0401 16.6966 6.6743 15.9178 6.6743C15.1379 6.6743 14.5039 6.0401 14.5039 5.26088C14.5039 4.48146 15.1379 3.84745 15.9178 3.84745ZM3.98693 8.41415C4.6463 8.41415 5.18321 8.95084 5.18321 9.61038C5.18321 10.2701 4.64649 10.8066 3.98693 10.8066C3.32737 10.8066 2.79065 10.2705 2.79065 9.61038C2.79084 8.95084 3.32718 8.41415 3.98693 8.41415ZM6.86443 12.9232C6.45354 13.3347 5.72031 13.6819 5.71344 13.6855C5.52254 13.7746 5.40061 13.9668 5.40061 14.1776V20.2676C5.40061 20.5383 5.28559 20.701 5.09357 20.7018C5.09282 20.7018 5.09208 20.702 5.09189 20.702C4.93921 20.7018 4.7759 20.5864 4.77217 20.2611C4.76471 19.6206 4.77161 17.8947 4.77217 17.8774C4.7731 17.577 4.53075 17.3325 4.23058 17.3314H4.22816C4.22406 17.3314 4.22052 17.3329 4.21623 17.3329C4.21213 17.3329 4.20859 17.3314 4.2043 17.3314H4.20169C3.90154 17.3329 3.65919 17.5771 3.66067 17.8774C3.66067 17.8947 3.66757 19.6206 3.66067 20.2611C3.65564 20.672 3.409 20.705 3.32678 20.7018C3.25203 20.7016 3.00818 20.6692 3.00818 20.2676L3.00781 16.8135V14.6385C3.00781 14.3382 2.76415 14.0947 2.46398 14.0947C2.16346 14.0947 1.92034 14.3384 1.92034 14.6385V16.8135C1.92034 17.1975 1.69626 17.2391 1.60062 17.2391C1.52251 17.2391 1.26784 17.2081 1.26784 16.8135C1.26784 16.562 1.2602 16.3021 1.25237 16.037C1.22664 15.1597 1.19943 14.2528 1.45744 13.4797C1.69141 12.7784 3.26241 12.548 3.98669 12.5461C3.99937 12.5461 4.01242 12.5459 4.02547 12.5446C4.58476 12.5049 6.02678 12.3513 6.95947 11.8055C6.96842 12.1297 6.97774 12.4742 6.98743 12.8334C6.94362 12.858 6.9019 12.8863 6.86443 12.9232ZM11.2868 20.6549C11.07 20.6549 10.8374 20.4959 10.8374 20.0492C10.8374 18.9412 10.6286 14.3477 10.6198 14.1525C10.6064 13.863 10.3681 13.6347 10.078 13.6337H10.0765C9.78701 13.6337 9.54822 13.8604 9.53328 14.1497C9.52414 14.325 9.31497 18.4614 9.31497 19.9949C9.31497 20.6095 8.85002 20.6406 8.75716 20.6406C8.66898 20.6406 8.22751 20.6121 8.22751 20.049C8.22751 17.8805 7.98161 9.46153 7.97881 9.37611C7.97117 9.11474 7.77878 8.89625 7.5202 8.85525C7.26033 8.81461 7.01088 8.96319 6.92345 9.20927L6.30918 10.9295C6.13338 11.0136 5.90855 11.094 5.65295 11.1667C6.03476 10.7582 6.27057 10.2114 6.27057 9.60932C6.27057 9.15688 6.13597 8.73575 5.90853 8.38064C6.22396 7.9748 6.82519 7.32008 7.4512 7.06972C8.32109 6.72131 9.43628 6.67339 10.5114 6.67339C11.9946 6.67339 13.7699 6.8641 14.0885 7.01417C14.1232 7.03747 14.159 7.05499 14.1963 7.06972C14.3665 7.23172 14.5591 7.37023 14.7698 7.4791C13.5151 7.78725 12.4262 8.4591 12.3671 8.49584C12.1693 8.61963 12.0805 8.84986 12.1247 9.06609C12.1191 9.09294 12.1134 9.12071 12.112 9.14923C12.096 9.50697 11.7077 17.9341 11.7077 20.107C11.7073 20.5111 11.4904 20.6549 11.2868 20.6549ZM19.0713 14.1774C19.0713 14.4352 18.858 14.5036 18.7452 14.5036C18.4501 14.5036 18.4188 14.1235 18.4188 13.9598L18.4186 10.4801C18.4186 10.18 18.1755 9.93652 17.8752 9.93652C17.5747 9.93652 17.3313 10.1802 17.3313 10.4801V13.96C17.3313 14.3316 17.4134 14.6349 17.5457 14.8759C17.5148 15.4465 17.3313 18.8994 17.3313 20.3216C17.3313 20.6251 17.1695 20.6885 17.0336 20.6885C16.9745 20.6885 16.6785 20.668 16.6785 20.267V15.9169C16.6785 15.6166 16.4354 15.3731 16.135 15.3731C15.8345 15.3731 15.5912 15.6167 15.5912 15.9169V20.2668C15.5912 20.6678 15.2957 20.6883 15.2363 20.6883C15.1891 20.6883 15.1003 20.6786 15.033 20.6143C14.9549 20.539 14.9382 20.4133 14.9382 20.3212C14.9382 18.8088 14.7297 11.0137 14.7206 10.6825C14.7156 10.4874 14.6061 10.3097 14.4341 10.2178C14.2622 10.1259 14.0537 10.1326 13.888 10.2362C13.8228 10.2776 13.4883 10.489 13.1293 10.7361C13.1619 9.99577 13.1863 9.46131 13.1949 9.27343C13.7001 8.99603 14.8828 8.41312 15.9175 8.41312C18.6611 8.41312 19.0709 9.57098 19.0709 10.2618L19.0713 14.1774Z" fill="currentColor" stroke="currentColor" stroke-width="0.3"/>
</g>
</svg>
