<svg preserveAspectRatio="none" width="100%" height="100%" overflow="visible" style="display: block;" viewBox="0 0 24 24" fill="none" xmlns="http://www.w3.org/2000/svg">
<g id="Icon - Bold">
<g id="Union">
<path d="M17.3408 3.62109C18.7252 3.62143 19.8517 4.74932 19.8525 6.13379C19.8525 7.06018 19.347 7.86978 18.5986 8.30566C20.4987 8.60735 21.5998 9.62709 21.5996 11.1602L21.6006 15.0928C21.6004 15.9811 20.8784 16.5123 20.1806 16.5127C20.1317 16.5127 20.0813 16.5089 20.0322 16.5039C19.9699 17.7233 19.8526 20.1601 19.8525 21.2646C19.8525 21.8162 19.6188 22.158 19.4228 22.3467C19.1682 22.5917 18.8265 22.7265 18.4609 22.7266C18.1453 22.7265 17.8203 22.6186 17.5586 22.4111C17.2968 22.6189 16.9713 22.7265 16.6552 22.7266C16.2903 22.7264 15.949 22.5916 15.6943 22.3467C15.4985 22.1578 15.2646 21.8161 15.2646 21.2646C15.2645 20.0746 15.1299 14.8085 15.0722 12.5957C14.8216 12.7703 14.5972 12.9374 14.4775 13.0498C14.3588 15.811 14.2032 19.7045 14.2031 21.0508C14.2029 22.1277 13.441 22.692 12.6884 22.6924C12.2202 22.6923 11.7468 22.4738 11.4502 22.0488C11.1318 22.4642 10.6366 22.6776 10.1465 22.6777C9.33962 22.6775 8.52248 22.0981 8.52243 20.9912C8.52239 19.9439 8.46436 17.4257 8.40427 15.0977C8.2085 15.2296 8.01755 15.3421 7.86618 15.4248V21.21C7.86608 22.208 7.16516 22.7339 6.47263 22.7383H6.46481C6.15649 22.7382 5.83833 22.6274 5.58298 22.4141C5.32465 22.6272 5.00443 22.7382 4.69333 22.7383H4.68552C3.98656 22.734 3.27945 22.2079 3.27927 21.21V19.2217C3.17407 19.2458 3.06523 19.2597 2.95798 19.2598C2.26606 19.2595 1.53122 18.7258 1.53122 17.7393C1.53119 17.4976 1.52325 17.2466 1.51559 16.9922C1.48845 16.0617 1.45835 15.0051 1.77829 14.0449C2.09861 13.0864 3.16674 12.6742 4.05759 12.4961C3.43079 12.0719 3.01864 11.3538 3.01852 10.54C3.01874 9.23694 4.07576 8.17985 5.37888 8.17969C6.68192 8.17994 7.73803 9.23699 7.73825 10.54C7.73813 11.3867 7.29082 12.1266 6.62106 12.543C7.50887 12.4839 9.09991 12.2694 9.56638 11.4766C9.1212 11.5899 8.72816 11.5822 8.33493 11.5469C8.82578 10.0868 8.36205 8.71403 7.21286 7.74219C7.55817 7.42662 7.97352 7.11972 8.42868 6.9375C9.47442 6.51903 10.7199 6.46193 11.9091 6.46191C11.9378 6.46201 12.9118 6.47101 13.9297 6.55371C13.9502 6.73328 14.0016 6.91793 14.0595 7.06641C14.4364 8.3557 15.7728 8.3458 16.3935 8.17969C16.3666 8.17717 14.8332 8.02452 14.8427 5.89551L14.8398 5.89453C14.9614 4.62184 16.0366 3.62125 17.3408 3.62109Z" fill="currentColor"/>
<path d="M11.0351 1C12.4204 1.00025 13.5478 2.12751 13.5478 3.5127C13.5477 4.89795 12.4204 6.02514 11.0351 6.02539C9.64965 6.02539 8.52243 4.89821 8.52243 3.5127C8.52243 2.1276 9.64959 1 11.0351 1Z" fill="currentColor"/>
</g>
</g>
</svg>
