<svg preserveAspectRatio="none" width="100%" height="100%" overflow="visible" style="display: block;" viewBox="0 0 24 24" fill="none" xmlns="http://www.w3.org/2000/svg">
<g id="Icon - Bold">
<g id="Icon">
<path fill-rule="evenodd" clip-rule="evenodd" d="M11.4898 4.41116C8.68914 2.81899 5.26388 2.55895 2.23133 3.70826C1.78963 3.87566 1.5 4.28099 1.5 4.73173V15.7783C1.5 16.5182 2.28876 17.0242 3.01387 16.7494C5.49721 15.8082 8.30215 16.0212 10.5956 17.325L11.7309 17.9704C11.8175 18.0196 11.9101 18.0411 12 18.0396C12.0899 18.0411 12.1825 18.0196 12.2691 17.9704L13.4044 17.325C15.6979 16.0212 18.5028 15.8082 20.9861 16.7494C21.7112 17.0242 22.5 16.5182 22.5 15.7783V4.73173C22.5 4.28099 22.2104 3.87566 21.7687 3.70826C18.7361 2.55895 15.3109 2.81899 12.5102 4.41116L12 4.70118L11.4898 4.41116ZM12.75 6.67487C12.75 6.28241 12.4142 5.96426 12 5.96426C11.5858 5.96426 11.25 6.28241 11.25 6.67487V15.6759C11.25 16.0684 11.5858 16.3865 12 16.3865C12.4142 16.3865 12.75 16.0684 12.75 15.6759V6.67487Z" fill="white"/>
<path d="M2.72484 18.5584C4.7487 17.4398 7.2513 17.4398 9.27516 18.5584L10.3624 19.1593C11.3743 19.7186 12.6257 19.7186 13.6376 19.1593L14.7248 18.5584C16.7487 17.4398 19.2513 17.4398 21.2752 18.5584L21.3779 18.6152C21.7357 18.8129 21.8565 19.248 21.6478 19.587C21.4391 19.926 20.9799 20.0405 20.6221 19.8428L20.5194 19.786C18.9625 18.9256 17.0375 18.9256 15.4806 19.786L14.3934 20.3869C12.9144 21.2044 11.0856 21.2044 9.60661 20.3869L8.51935 19.786C6.96254 18.9256 5.03746 18.9256 3.48065 19.786L3.3779 19.8428C3.02011 20.0405 2.56088 19.926 2.35217 19.587C2.14346 19.248 2.26431 18.8129 2.6221 18.6152L2.72484 18.5584Z" fill="white"/>
</g>
</g>
</svg>
