<svg preserveAspectRatio="none" width="100%" height="100%" overflow="visible" style="display: block;" viewBox="0 0 24 24" fill="none" xmlns="http://www.w3.org/2000/svg">
<g id="Icon - Bold">
<path id="icon" d="M8.79792 15.2981C7.46607 13.851 6.44522 12.1574 5.73537 10.2171C5.02552 8.27689 4.75082 6.22493 4.91128 4.06125C4.923 3.77865 5.02696 3.54706 5.22317 3.36647C5.41938 3.18588 5.65879 3.10144 5.94139 3.11316L9.1545 3.28174C9.41355 3.29247 9.63103 3.38111 9.80696 3.54764C9.98288 3.71417 10.0834 3.9218 10.1085 4.17054L10.4536 7.79419C10.4704 7.96002 10.4522 8.1126 10.3993 8.25195C10.3463 8.3913 10.2585 8.51741 10.1359 8.63027L8.0389 10.5603C8.32065 11.1618 8.64434 11.7473 9.00997 12.3168C9.3756 12.8863 9.79545 13.4286 10.2695 13.9437C10.7435 14.4587 11.2492 14.922 11.7865 15.3335C12.3239 15.745 12.8805 16.1161 13.4566 16.4466L15.5536 14.5166C15.6762 14.4037 15.8092 14.3266 15.9524 14.2854C16.0957 14.2442 16.2492 14.2387 16.4131 14.2691L19.9958 14.913C20.2416 14.9586 20.4402 15.0759 20.5916 15.265C20.743 15.4541 20.8133 15.6782 20.8026 15.9373L20.7046 19.1533C20.6929 19.4359 20.589 19.6675 20.3927 19.8481C20.1965 20.0287 19.9571 20.1131 19.6745 20.1014C17.5163 20.0945 15.4969 19.654 13.6164 18.7799C11.7359 17.9057 10.1298 16.7451 8.79792 15.2981Z" fill="white"/>
</g>
</svg>
