<svg preserveAspectRatio="none" width="100%" height="100%" overflow="visible" style="display: block;" viewBox="0 0 24 24" fill="none" xmlns="http://www.w3.org/2000/svg">
<g id="Icon - Bold">
<path id="Vector" fill-rule="evenodd" clip-rule="evenodd" d="M6.09609 2.40563C4.05811 2.40563 2.40595 4.05778 2.40595 6.09577V6.83367H21.5942V6.09577C21.5942 4.05778 19.9421 2.40563 17.9041 2.40563H6.09609ZM21.5939 8.30953H2.40563V17.9034C2.40563 19.9414 4.05778 21.5936 6.09577 21.5936H17.9036C19.9416 21.5936 21.5937 19.9414 21.5937 17.9034L21.5939 8.30953ZM11.0236 16.4798C11.3118 16.7681 11.3118 17.2353 11.0236 17.5236C10.7354 17.8118 10.2681 17.8118 9.97987 17.5236L7.10972 14.6534C6.82151 14.3652 6.82151 13.8979 7.10972 13.6097L9.97987 10.7395C10.2681 10.4513 10.7354 10.4513 11.0236 10.7395C11.3118 11.0277 11.3118 11.495 11.0236 11.7833L8.67525 14.1316L11.0236 16.4798ZM12.9319 11.783C12.6437 11.4948 12.6437 11.0275 12.9319 10.7393C13.2201 10.451 13.6874 10.451 13.9756 10.7393L16.8458 13.6094C17.134 13.8976 17.134 14.3649 16.8458 14.6531L13.9756 17.5233C13.6874 17.8115 13.2202 17.8115 12.9319 17.5233C12.6437 17.2351 12.6437 16.7678 12.9319 16.4796L15.2803 14.1312L12.9319 11.783Z" fill="white"/>
</g>
</svg>
