<svg preserveAspectRatio="none" width="100%" height="100%" overflow="visible" style="display: block;" viewBox="0 0 24 24" fill="none" xmlns="http://www.w3.org/2000/svg">
<g id="Icon - Bold">
<path id="Vector" d="M13.4411 3.00002C14.828 3.00002 15.9711 4.14055 15.9711 5.55037V7.47459C15.9704 7.5578 15.9534 7.64019 15.9207 7.71683C15.888 7.79364 15.8404 7.86307 15.7809 7.92117C15.7213 7.97944 15.6507 8.02523 15.5733 8.05608C15.4958 8.08694 15.4131 8.10204 15.3297 8.10073L14.0723 8.10319C13.7027 8.10319 13.4309 7.81498 13.4309 7.45933V5.86531C13.4309 5.68872 13.2937 5.55167 13.1248 5.55167H7.08033L11.0328 7.53169C11.6551 7.84287 12.1607 8.66071 12.1607 9.3581V15.4126C12.159 15.4555 12.1663 15.4982 12.1817 15.5382C12.1971 15.5781 12.2204 15.6145 12.2505 15.6452C12.2803 15.6757 12.3163 15.7 12.3558 15.7164C12.3954 15.7329 12.4379 15.7409 12.4807 15.7404H13.1106C13.1522 15.7416 13.1937 15.7343 13.2324 15.7194C13.2713 15.7041 13.3066 15.6815 13.3365 15.6524C13.3664 15.6234 13.39 15.5888 13.4062 15.5503C13.4223 15.5121 13.4307 15.4709 13.4307 15.4292V13.8379C13.4295 13.7532 13.4453 13.6693 13.4771 13.591C13.509 13.5126 13.5561 13.4413 13.616 13.3816C13.6757 13.3218 13.747 13.2746 13.8253 13.2427C13.9035 13.2109 13.9876 13.1951 14.0721 13.1964H15.3295C15.413 13.1938 15.4962 13.2081 15.5742 13.2385C15.652 13.2687 15.7231 13.3145 15.7828 13.3727C15.8427 13.431 15.8903 13.5007 15.9225 13.5779C15.9548 13.6548 15.9712 13.7377 15.9709 13.8213V15.7428C15.9709 17.1578 14.8328 18.2881 13.4294 18.2881H12.1607V18.9346C12.1607 20.3445 11.0824 21.1078 9.75251 20.6506L4.40804 18.8153C3.08713 18.3618 2 16.8492 2 15.4458V5.54255C2 4.12648 3.1328 2.99989 4.53001 2.99989L13.4411 3.00002Z" fill="white"/>
<path id="Vector_2" d="M18.9184 6.65507C18.6949 6.39345 18.5107 6.46583 18.5107 6.82149V9.35411H13.7478C13.6646 9.35395 13.5848 9.38661 13.5254 9.44487C13.466 9.50297 13.4318 9.58208 13.4302 9.66529V11.5792C13.4303 11.6205 13.4387 11.6616 13.4548 11.6996C13.4709 11.7377 13.4944 11.7722 13.5239 11.8012C13.5534 11.8301 13.5884 11.8529 13.627 11.8682C13.6654 11.8835 13.7064 11.8912 13.7478 11.8904L18.5107 11.8943V14.4281C18.5107 14.776 18.6937 14.8562 18.9184 14.5932L22.1166 10.863C22.1707 10.7952 22.2003 10.711 22.2003 10.6242C22.2003 10.5373 22.1707 10.4531 22.1166 10.3854L18.9184 6.65507Z" fill="white"/>
</g>
</svg>
