<svg preserveAspectRatio="none" width="100%" height="100%" overflow="visible" style="display: block;" viewBox="0 0 19.2767 20.6056" fill="none" xmlns="http://www.w3.org/2000/svg">
<g id="Group">
<path id="Vector" d="M8.31 3.99078C7.44408 3.99078 6.50437 6.11131 6.1402 9.39781C6.85852 9.33885 7.58672 9.30919 8.31 9.30919C9.03328 9.30919 9.76148 9.33867 10.4798 9.39781C10.1156 6.1063 9.17592 3.99078 8.31 3.99078Z" fill="white"/>
<path id="Vector_2" d="M8.31 20.6056C9.17592 20.6056 10.1156 18.4851 10.4798 15.1986C9.76148 15.2576 9.03328 15.2872 8.31 15.2872C7.58672 15.2872 6.85852 15.2577 6.1402 15.1986C6.5044 18.4851 7.44408 20.6056 8.31 20.6056Z" fill="white"/>
<path id="Vector_3" d="M11.213 10.1258C11.2719 10.8441 11.3016 11.5723 11.3016 12.2956C11.3016 13.0189 11.2721 13.7471 11.213 14.4654C14.4995 14.1014 16.62 13.1615 16.62 12.2956C16.6151 11.4297 14.4995 10.49 11.213 10.1258Z" fill="white"/>
<path id="Vector_4" d="M16.5066 13.5697C15.4488 14.3668 13.4119 14.8981 11.1436 15.1391C10.9024 17.4022 10.376 19.4391 9.57422 20.4969C13.1411 19.9461 15.9553 17.1318 16.5066 13.5697Z" fill="white"/>
<path id="Vector_5" d="M5.40703 14.4655C5.34807 13.7472 5.31841 13.019 5.31841 12.2957C5.31841 11.5724 5.34789 10.8442 5.40703 10.1259C2.12048 10.4899 9.53674e-09 11.4298 9.53674e-09 12.2957C9.53674e-09 13.1616 2.12053 14.1013 5.40703 14.4655Z" fill="white"/>
<path id="Vector_6" d="M13.958 5.65344C13.958 5.83819 13.8082 5.98797 13.6234 5.98797C13.4387 5.98797 13.2889 5.83819 13.2889 5.65344C13.2889 5.46869 13.4387 5.31872 13.6234 5.31872C13.8082 5.31872 13.958 5.46869 13.958 5.65344Z" fill="white"/>
<path id="Vector_7" d="M5.98266 12.2956C5.98266 13.0828 6.01708 13.8259 6.07622 14.5293C6.77972 14.5883 7.52274 14.6229 8.30991 14.6229C9.09708 14.6229 9.84014 14.5885 10.5436 14.5293C10.6026 13.8258 10.6372 13.0828 10.6372 12.2956C10.6372 11.5085 10.6027 10.7654 10.5436 10.0619C9.8401 10.003 9.09708 9.96837 8.30991 9.96837C7.52274 9.96837 6.77968 10.0028 6.07622 10.0619C6.01708 10.7654 5.98266 11.5085 5.98266 12.2956Z" fill="white"/>
<path id="Vector_8" d="M9.56953 4.08406C10.3715 5.14184 10.9029 7.18367 11.1488 9.45688C13.412 9.69803 15.4439 10.2245 16.5066 11.0215C16.236 9.29961 15.434 7.70052 14.1991 6.46072C14.0367 6.57388 13.84 6.64767 13.6234 6.64767C13.0725 6.64767 12.6246 6.19998 12.6246 5.64881C12.6246 5.51112 12.654 5.37324 12.7082 5.25514C11.7442 4.6549 10.6815 4.25646 9.56945 4.0842L9.56953 4.08406Z" fill="white"/>
<path id="Vector_9" d="M7.03547 20.4973C6.23841 19.4396 5.70703 17.4027 5.46609 15.1395C3.20292 14.8984 1.16606 14.372 0.103125 13.5702C0.659016 17.1321 3.47334 19.9466 7.03547 20.4973Z" fill="white"/>
<path id="Vector_10" d="M7.03547 4.0986C3.47334 4.64956 0.659063 7.46389 0.107813 11.0263C1.16559 10.2292 3.2025 9.69781 5.47078 9.45688C5.71193 7.19352 6.23855 5.15666 7.03542 4.09906L7.03547 4.0986Z" fill="white"/>
<path id="Vector_11" d="M18.9422 5.98297C19.1242 5.98297 19.2767 5.83539 19.2767 5.64844C19.2767 2.53402 16.7429 1.43051e-08 13.6283 1.43051e-08C13.4463 1.43051e-08 13.2937 0.147581 13.2937 0.334533C13.2937 0.516539 13.4413 0.669066 13.6283 0.669066C16.3785 0.669066 18.612 2.90275 18.612 5.65282C18.6073 5.835 18.7598 5.98259 18.9418 5.98259L18.9422 5.98297Z" fill="white"/>
<path id="Vector_12" d="M13.6237 2.66235C13.4417 2.66235 13.2892 2.80993 13.2892 2.99688C13.2892 3.18383 13.4368 3.33141 13.6237 3.33141C14.9079 3.33141 15.9509 4.37438 15.9509 5.65852C15.9509 5.84053 16.0984 5.99305 16.2854 5.99305C16.4723 5.99305 16.6199 5.84547 16.6199 5.65852C16.6152 4.0005 15.2768 2.66235 13.6237 2.66235Z" fill="white"/>
</g>
</svg>
