<svg preserveAspectRatio="none" width="100%" height="100%" overflow="visible" style="display: block;" viewBox="0 0 24 24" fill="none" xmlns="http://www.w3.org/2000/svg">
<g id="Icon - Bold">
<path id="Subtract" d="M8.4937 6.08887C9.25684 7.29824 10.6459 7.99983 11.9947 8C13.3432 8 14.7321 7.2987 15.4957 6.08984C16.9097 7.06404 17.9057 8.61533 18.1265 10.4316L18.3316 12.1182C18.3342 12.14 18.3351 12.1513 18.3365 12.1621C18.4867 13.3698 18.9107 14.5277 19.5757 15.5469C19.5817 15.556 19.5882 15.5657 19.6001 15.584L20.2105 16.5137C20.7444 17.3269 21.0116 17.7335 20.9878 18.0703C20.9676 18.3569 20.8247 18.6207 20.5962 18.7949C20.3277 18.9996 19.8415 19 18.8687 19H5.12163C4.14877 19 3.66166 18.9996 3.39311 18.7949C3.16478 18.6207 3.02269 18.3568 3.00249 18.0703C2.97876 17.7335 3.24504 17.3268 3.77886 16.5137L4.38921 15.584C4.40129 15.5656 4.40765 15.556 4.41362 15.5469C5.07871 14.5276 5.50267 13.3698 5.65288 12.1621C5.65422 12.1513 5.65609 12.14 5.65874 12.1182L5.86382 10.4316C6.08465 8.61527 7.07953 7.06306 8.4937 6.08887Z" fill="white"/>
<path id="Ellipse 45" d="M9 19C9 19.394 9.0776 19.7841 9.22836 20.1481C9.37913 20.512 9.6001 20.8427 9.87868 21.1213C10.1573 21.3999 10.488 21.6209 10.8519 21.7716C11.2159 21.9224 11.606 22 12 22C12.394 22 12.7841 21.9224 13.1481 21.7716C13.512 21.6209 13.8427 21.3999 14.1213 21.1213C14.3999 20.8427 14.6209 20.512 14.7716 20.1481C14.9224 19.7841 15 19.394 15 19L12 19H9Z" fill="white"/>
<path id="Vector" d="M14.5 4C14.5 5.38071 13.3807 6.5 12 6.5C10.6193 6.5 9.5 5.38071 9.5 4C9.5 2.61929 10.6193 1.5 12 1.5C13.3807 1.5 14.5 2.61929 14.5 4Z" fill="white"/>
</g>
</svg>
