<svg preserveAspectRatio="none" width="100%" height="100%" overflow="visible" style="display: block;" viewBox="0 0 18.1025 19.5" fill="none" xmlns="http://www.w3.org/2000/svg">
<g id="Group">
<path id="Exclude" d="M8.24219 0.262695C8.82468 -0.106786 9.47723 -0.0819273 10.0176 0.308594C11.5133 1.35769 13.0576 2.0237 14.7275 2.33398C15.1701 2.41421 15.6272 2.46284 16.1152 2.51172C16.3209 2.53255 16.5238 2.55338 16.7295 2.57422C17.6672 2.65804 18.1022 3.3831 18.1025 4.06641C18.0572 7.23868 17.4999 9.92348 16.4053 12.2939C15.042 15.2328 12.8278 17.5905 9.82227 19.3057C9.61315 19.4275 9.34108 19.4999 9.05176 19.5C8.82174 19.5 8.59123 19.4548 8.39258 19.3643C5.78468 18.1511 3.75864 16.4258 2.36035 14.2227C1.40854 12.734 0.753251 11.0423 0.359375 9.05176C0.136147 7.90477 0.020838 6.6913 0 5.3457V4.11523C5.91805e-05 3.70028 0.146214 2.66925 1.47754 2.56445C3.53819 2.41447 5.31657 1.92584 6.91699 1.06836C7.29703 0.866223 7.67376 0.625624 8.07129 0.371094L8.24219 0.262695ZM13.0312 5.59668C12.7751 5.59668 12.5292 5.69966 12.3398 5.8877C11.6602 6.56169 10.8177 7.37067 10.0029 8.15234C9.1563 8.96421 8.28071 9.80359 7.57617 10.5039C7.57535 10.5049 7.57407 10.5062 7.57324 10.5068C7.56334 10.4959 7.55406 10.4849 7.54395 10.4746L5.78027 8.69043C5.56081 8.4681 5.30608 8.36595 5.01855 8.39062C4.62179 8.42446 4.33063 8.64351 4.19922 9.00781C4.06562 9.37922 4.14609 9.72832 4.43164 10.0166C5.36143 10.9551 5.95922 11.5583 6.89453 12.4912C6.99955 12.5964 7.13573 12.6821 7.26758 12.7256C7.37672 12.7617 7.4858 12.7793 7.59082 12.7793C7.84863 12.7792 8.08808 12.6724 8.30176 12.46C9.10229 11.6634 10.0759 10.7258 11.0176 9.81934C11.9339 8.93702 12.8811 8.02397 13.6631 7.24707C13.6855 7.22463 13.7088 7.20259 13.7305 7.17871C14.0078 6.87074 14.0486 6.39261 13.8281 6.04199C13.6522 5.76294 13.3545 5.59677 13.0312 5.59668Z" fill="white"/>
</g>
</svg>
