<svg width="24" height="24" viewBox="0 0 24 24" fill="none" xmlns="http://www.w3.org/2000/svg">
<path fill-rule="evenodd" clip-rule="evenodd" d="M12.5006 2C15.5686 2 18.0659 4.56887 18.066 7.7265V9.82461H18.9408C19.528 9.82461 19.9999 10.309 20 10.9135V20.9111C20 21.5102 19.5281 22 18.9408 22H6.05802C5.47608 21.9999 5.00015 21.5098 5 20.9111V10.9146C5 10.3101 5.47622 9.82473 6.05802 9.82461H6.93629V7.7265C6.93641 4.5692 9.43242 2.00027 12.5006 2ZM12.5028 14.0068C11.4819 14.0068 10.6509 14.861 10.6507 15.9117C10.6507 16.7715 11.2102 17.4923 11.9716 17.7288V18.888C11.9716 19.1884 12.2085 19.4322 12.5006 19.4324C12.7926 19.4324 13.0296 19.1887 13.0296 18.888V17.73C13.7926 17.4946 14.3547 16.7729 14.3549 15.9117C14.3548 14.8611 13.5237 14.0069 12.5028 14.0068ZM12.5006 3.08887C10.0159 3.08905 7.99438 5.16937 7.99431 7.7265V9.82344H17.0068V7.7265C17.0068 5.16931 14.9854 3.08887 12.5006 3.08887Z" fill="white"/>
</svg>
