<svg preserveAspectRatio="none" width="100%" height="100%" overflow="visible" style="display: block;" viewBox="0 0 24 24" fill="none" xmlns="http://www.w3.org/2000/svg">
<g id="Icon - Bold">
<path id="Vector" d="M17.9669 7.52671H17.215V5.77658C17.215 3.14277 15.0722 1.00002 12.4385 1.00002C9.80453 1.00002 7.66145 3.14291 7.66145 5.77658V7.52671H6.90798C6.40848 7.52671 5.99959 7.93082 5.99959 8.4351V16.7732C5.99959 17.2727 6.40829 17.6816 6.90798 17.6816H11.9841V19.2358C11.3487 19.4008 10.8523 19.8966 10.6875 20.53H8.37616C8.1253 20.53 7.92205 20.7334 7.92205 20.9841C7.92205 21.2349 8.12548 21.4382 8.37616 21.4382H10.6873C10.89 22.2202 11.5939 22.7999 12.4397 22.7999C13.2814 22.7999 13.9847 22.2202 14.1874 21.4382H16.5006C16.7514 21.4382 16.9547 21.2347 16.9547 20.9841C16.9547 20.7332 16.7513 20.53 16.5006 20.53H14.1874C14.0226 19.8964 13.5262 19.4002 12.8927 19.2356V17.6818H17.9669C18.471 17.6818 18.8753 17.2731 18.8753 16.7734L18.8751 8.43482C18.8751 7.93054 18.471 7.52671 17.9669 7.52671ZM8.57031 5.77658C8.57031 3.64358 10.3058 1.90832 12.4388 1.90832C14.5718 1.90832 16.307 3.64363 16.307 5.77658V7.52544L8.57031 7.52526V5.77658ZM12.8929 14.1199V15.0865C12.8929 15.3373 12.6895 15.5406 12.4388 15.5406C12.1879 15.5406 11.9847 15.3371 11.9847 15.0865V14.1189C11.331 13.9217 10.8507 13.3211 10.8507 12.6039C10.8507 11.7274 11.5637 11.0144 12.4403 11.0144C13.3168 11.0144 14.0298 11.7274 14.0298 12.6039C14.0296 13.3222 13.5479 13.9236 12.8929 14.1199Z" fill="white"/>
</g>
</svg>
